<?xml version="1.0" encoding="UTF-8"?><svg xmlns="http://www.w3.org/2000/svg" class="interstitial" enable-background="new 0 0 345 83" height="75px" id="Layer_3" preserveAspectRatio="xMidYMid meet" version="1.1" viewBox="0 0 345 83" width="310px" x="0px" xml:space="preserve" y="0px"><style>
    	.st0{fill:#F58025;}
    	.st1{fill:#003E74;}
    	.st2{fill:#7BAED4;}
    	.header .st1 {fill:#FFFFFF;}
</style><g id="g90" transform="translate(-19.3,-53.503571)"><g id="g82"><g id="g18"><path class="st0" d="m 25.7,101.1 c 0.6,-0.3 1.3,-0.3 1.9,-0.6 -1,-1.1 -2.1,-2.1 -2.9,-3.4 -0.3,-0.4 -0.1,-0.5 0.1,-0.6 0.2,0 0.1,-0.4 0.2,-0.6 0.4,-0.1 0.4,-0.6 0.6,-0.9 0,-0.1 0,-0.4 0.1,-0.5 0.1,-0.1 0.3,-0.2 0.5,0 0.8,1 1.7,1.6 2.6,2.3 1.1,0.8 2.3,1.4 3.2,2.4 0.1,0 0.4,0.2 0.4,0 0.1,-1 0.5,-2 0.9,-2.8 0.1,-0.3 0.2,-0.7 0.4,-1 0.3,-0.6 1,-1 1.5,-1.4 0.9,-0.5 1.9,0 2.6,-0.8 0.2,-0.2 0.6,0 0.8,0 0.6,0.3 1.4,0.1 1.9,0.6 -0.8,1.8 -0.8,3.7 -1.4,5.6 -0.1,0.4 -0.3,1 -0.1,1.2 0.9,0.3 3.2,-0.1 3.3,-0.2 1.2,0 2.3,0 3.5,0.3 0.9,0.2 1.5,0.6 2.3,1.3 1.3,1 1.3,2.8 1.1,4.4 0,0.1 -0.6,0.7 -0.8,0.6 -0.1,0 -0.1,-0.4 -0.2,-0.5 -0.5,0.4 -1.4,1.3 -1.7,1.3 -0.1,0 -0.7,-0.6 -1,-0.8 -1,-0.7 -2.2,-0.5 -3.3,-0.4 -1.3,0.1 -2.6,-0.1 -3.9,0.5 0.5,0.9 1.3,1.4 2.1,2.1 1.2,1.2 2.4,2.1 3.6,3.3 0.8,0.9 1.6,1.5 2.1,2.5 -0.3,0.2 0,0.3 -0.2,0.5 -0.2,0.1 -0.2,-0.3 -0.4,-0.3 -0.2,0 -0.3,0.3 -0.3,0.5 0.1,0.1 -0.2,0.7 -0.4,0.7 -0.1,0.1 -0.6,0.4 -0.8,0.4 -0.1,0 -0.7,-0.3 -0.7,-0.2 0.2,0.3 0.4,0.7 0.3,0.8 -0.5,-0.1 -0.8,-0.1 -1.1,-0.5 -1.6,-1.4 -3.1,-2.9 -4.8,-4.4 -0.6,-0.6 -1,-1.4 -1.8,-2 -1.2,2.8 -2,4.8 -3.2,7.6 -0.3,0.5 -0.4,1.8 -0.7,1.9 -0.2,0.1 -0.9,-0.9 -1.3,-1.7 0,-1.7 0.2,-2.3 0.3,-4.1 v -0.3 c 0.1,-2.3 0.8,-4.3 0.7,-6.7 0,-0.2 -0.3,-0.3 -0.6,-0.3 -3,-0.3 -5.9,-0.7 -8.9,-1.1 -0.7,-0.1 -1.4,-0.1 -2.1,-0.4 -0.1,-0.1 -0.5,-0.3 -0.6,-0.3 -0.1,-0.1 -0.1,-0.1 -0.2,-0.1 1.2,-1.2 2.2,-2.5 3.9,-3.2 0.8,0 2,-0.5 2.5,-0.7 z" id="path12"/><path class="st1" d="m 53.6,117.3 c -0.2,-0.1 -0.1,-0.3 -0.1,-0.3 0.2,-0.3 0.6,-0.3 0.8,-0.3 0.8,-0.2 1.7,0 2.5,-0.2 0.2,-0.1 0.3,-0.3 0.4,-0.3 0.6,-0.3 1.2,-0.4 1.9,-0.6 0.2,-0.1 0.6,-0.3 0.4,-0.6 -0.7,-0.8 -1.4,-1.5 -1.8,-2.4 -0.2,-0.5 -0.6,-0.9 -0.6,-1.4 0,-0.4 0.5,-0.5 0.9,-0.3 1.8,1 3,2.5 4.3,4.1 0.2,0.3 0.5,-0.4 0.6,-0.7 0.6,-1.3 1,-2.8 1.7,-4.1 0.2,-0.4 0.5,-0.9 0.9,-1 0.6,-0.2 1,-0.6 1.5,-0.9 0.4,-0.2 0.7,0 1.1,-0.2 0.2,-0.1 0.6,0.3 0.9,0.2 0.5,-0.3 0.9,-0.1 1.4,0 0.3,0.2 0.4,0.5 0.3,0.8 -0.5,1.2 -0.7,2.4 -1.5,3.6 -0.6,0.9 -1,1.8 -1.7,2.7 0,0.1 -0.1,0.3 0.1,0.3 0.4,0.1 0.9,0 1.2,0.2 1.2,0.4 2.4,0.3 3.7,0.5 0.6,0.2 0.6,1.1 1.2,1.6 0.3,0.2 -0.2,0.5 -0.6,0.6 -0.9,0.3 -1.8,-0.1 -2.7,0.2 -1.5,0.3 -3,0 -4.4,0.6 0.5,0.5 1,0.9 1.4,1.4 0.4,0.6 0.8,1.2 1.2,1.8 0.4,0.7 0.6,1.3 0.8,2 0.2,0.3 0.1,0.8 0.1,1.2 -0.2,-0.1 -0.2,-0.4 -0.3,-0.5 -0.2,0 -0.3,0.3 -0.6,0.3 -0.2,-0.1 -0.3,-0.3 -0.4,-0.4 -0.3,-0.3 -0.6,-0.8 -0.7,-1.2 -0.6,-1.3 -1.7,-2.1 -2.7,-2.9 -1,2.1 -1.7,4.2 -3.1,6.2 -0.1,0.2 -0.3,0.2 -0.6,0.2 -0.1,-0.1 -0.2,0.2 -0.3,0.2 -0.1,-0.2 -0.2,-0.2 -0.3,-0.3 -0.4,-0.3 -1,-0.7 -1.1,-1.2 -0.2,-0.5 -0.4,-0.9 -0.4,-1.4 0,-0.1 -0.2,-0.3 -0.2,-0.3 0.2,-0.3 0.2,-0.8 0.3,-1 0.2,-0.3 0.6,-0.6 0.6,-0.9 0.4,-1 1.1,-1.8 1.3,-2.8 -1.9,-0.3 -3.9,-0.2 -5.8,-0.9 -0.4,-0.2 -0.9,-0.3 -1.3,-0.6 -0.2,-0.7 -0.1,-0.9 -0.3,-1 z" id="path14"/><path class="st2" d="m 55.9,86.2 c 0.6,-1.5 1.6,-2.4 1.7,-4.1 -3.2,-1.8 -7,-0.7 -9.4,-4.9 -0.6,-0.9 0,-5.1 0.3,-5.6 0.7,-1.5 2.1,-1.5 3.4,-0.5 0.1,-0.1 1.1,0.2 1.3,0.3 1.3,-0.2 2.7,0.3 4.1,0.6 1.8,0.2 3.3,0.9 5,0.7 0.1,-0.1 0.3,-0.5 0.3,-1 -0.4,-2.5 -1,-4.7 -1.6,-7.3 -0.3,-0.6 -0.2,-1.4 -0.4,-2 -0.1,-1.5 -1.1,-3.8 -0.2,-4.5 0.1,-0.1 0.3,0.3 0.4,0.2 0.3,-0.2 0.4,-0.6 0.7,-0.5 3.1,2.1 5.7,5.3 8.5,8.4 0.9,0.9 1.1,-1.5 1.8,-2.3 0.2,-0.4 0,-1.3 0.2,-1.6 0.7,-1.3 0.8,-2.9 1.4,-4.1 1.1,-1.5 1.7,-3.8 3.3,-4.4 1.1,-0.3 2.3,0.1 3.3,1.2 0.2,0.1 0.7,0 1,0.3 1.1,1 2,2.3 3.2,3.5 0.4,0.5 0.6,1.4 0.4,1.8 -0.3,1.7 -1.8,1.8 -2.7,3 -1.7,2.8 -3.5,5.6 -5.2,8.4 -0.2,0.4 -0.7,1.3 -0.3,1.7 2.4,2.4 4.5,4.9 7.2,6.8 1.7,1.1 3.5,1 5,2.5 1.1,1.3 1.9,2.7 2.4,4.4 -6.1,3.9 -13,-2.5 -19.5,-2.4 -0.5,0.1 -0.4,0.8 -0.4,1.1 0.3,2.8 0.8,5.5 1.1,8.2 0.1,1.9 1.1,3.8 1.4,5.6 0.1,0.7 0.7,2.5 -0.2,2.4 -1,0 -2.4,-0.3 -3.1,-1.9 -0.9,-2.1 -1.8,-4.3 -2.5,-6.6 -0.1,-0.7 -0.4,-1.3 -0.1,-1.9 0.1,-1.1 -0.6,-2.1 -0.9,-2.9 -0.2,-0.4 -0.6,0.2 -0.9,0.4 -0.9,1.2 -1.8,2.3 -2.6,3.7 -1.5,2.1 -3.2,3.4 -5.2,4.3 -1.5,0.6 -3.7,0.9 -4.7,-1.4 0.5,-0.1 0.9,-1.2 0.6,-1.5 -2.3,-3.5 0.9,-5.6 1.9,-8.1 z" id="path16"/></g><g class="st1" id="g80"><g id="g78"><g id="g72"><g id="g66"><g id="g58"><g id="g22"><path d="m 123.1,125.5 h -5.6 V 95.6 h 5.6 v 5 c 2.1,-3.3 4.7,-5.5 9.7,-5.5 h 0.4 v 4.8 h -0.4 c -2.4,0 -4.3,0.8 -6,2.4 -2.1,2 -3.6,5.1 -3.7,7.7 0,0 0,15.5 0,15.5 z" id="path20"/></g><g id="g26"><path d="m 145.4,126.1 c -6.7,0 -9.7,-4.4 -9.7,-8.4 0,-6.4 5.4,-9.8 19.3,-12.2 v -1.3 c 0,-3.3 -2,-5 -5.9,-5 -5.2,0 -7,3.3 -7.5,4.3 l -0.1,0.4 -5.1,-2.2 0.2,-0.4 c 2.2,-3.9 7.1,-6.4 12.4,-6.4 5.8,0 11.6,2.8 11.6,9.1 v 14.7 c 0,3 0.3,4.6 0.7,6.2 l 0.1,0.5 h -5.8 l -0.4,-3.6 c -2.1,2.2 -5.4,4.3 -9.8,4.3 z m 9.5,-16.3 c -9.2,1.6 -13.7,4.2 -13.7,7.9 0,2.4 2.5,4.1 4.7,4.1 2.8,0 6.5,-1.9 9,-4.6 z" id="path24"/></g><g id="g30"><path d="m 180,125.5 h -6.8 l -9.6,-29.9 h 5.7 l 7.5,23.5 7.5,-23.5 h 5.1 z" id="path28"/></g><g id="g34"><path d="m 229.8,125.5 h -5.7 V 85.7 l 5.7,-2.4 z" id="path32"/></g><g id="g38"><path d="m 248.4,126.1 c -8.1,0 -13.5,-6.2 -13.5,-15.5 0,-9.3 5.4,-15.5 13.5,-15.5 8.1,0 13.5,6.2 13.5,15.5 0,9.3 -5.4,15.5 -13.5,15.5 z m 0,-26.8 c -4.9,0 -7.9,4.2 -7.9,11.3 0,7.1 3,11.3 7.9,11.3 4.9,0 7.9,-4.2 7.9,-11.3 0,-7.1 -3,-11.3 -7.9,-11.3 z" id="path36"/></g><g id="g42"><path d="m 278.6,126.1 c -8.1,0 -13.5,-6.2 -13.5,-15.5 0,-9.3 5.4,-15.5 13.5,-15.5 5.8,0 9.9,2.7 12.1,8.1 l 0.2,0.4 -5.3,1.6 -0.1,-0.3 c -0.8,-2.5 -2.7,-5.5 -6.9,-5.5 -5,0 -7.9,4.1 -7.9,11.3 0,7.2 2.9,11.3 7.9,11.3 3.9,0 5.8,-1.3 8.1,-5.2 l 0.2,-0.3 4.8,1.7 -0.2,0.4 c -3.5,5.4 -7.1,7.5 -12.9,7.5 z" id="path40"/></g><g id="g46"><path d="m 301.4,125.5 h -5.6 V 95.6 h 5.6 z" id="path44"/></g><g id="g52"><g id="g50"><path d="m 105.7,126.1 c -4.2,0 -7,-0.9 -7.5,-5.1 V 99.9 h -4.5 v -4.2 h 4.5 v -8.2 l 5.6,-2.4 v 10.6 h 7.2 l -1.1,4.2 h -6 v 20.4 c 0,0.8 0.4,1.6 3.1,1.6 1.4,0 2.5,-0.1 4.3,-0.4 l 0.6,-0.1 -1.1,4.2 h -0.2 c -1.6,0.3 -2.8,0.5 -4.9,0.5 z" id="path48"/></g></g><g id="g56"><path d="m 331.9,136.5 c -1.5,0 -3.3,-0.2 -4,-0.3 l -0.4,-0.1 1.3,-4.2 h 0.3 c 0.1,0 0.3,0 0.4,0 0.5,0.1 1.1,0.1 1.8,0.1 2.8,0 6.2,-0.7 7.6,-6.6 L 328.1,95.5 h 5.3 l 0.1,0.2 7.9,21.4 7,-21.7 h 5.9 l -10.9,32.3 c -2.8,7.7 -8.4,8.8 -11.5,8.8 z" id="path54"/></g></g><g id="g64"><g id="g62"><path d="m 319.4,126.1 c -4.2,0 -7,-0.9 -7.5,-5.1 v -0.1 -21.1 h -4.5 v -4.2 h 4.5 v -8.2 l 5.6,-2.4 v 10.6 h 7.2 l -1.1,4.2 h -6 v 20.4 c 0,0.8 0.4,1.6 3.1,1.6 1.4,0 2.5,-0.1 4.3,-0.4 l 0.6,-0.1 -1.1,4.2 h -0.2 c -1.6,0.4 -2.8,0.6 -4.9,0.6 z" id="path60"/></g></g></g><g id="g70"><path d="m 206.2,126.1 c -3.8,0 -7.2,-1.3 -9.8,-3.7 -3,-2.8 -4.5,-6.9 -4.5,-11.8 0,-9.3 5.4,-15.5 13.5,-15.5 3.4,0 6.6,1.1 8.8,3.2 2.5,2.4 3.9,6 3.9,10.4 v 3.1 h -20.5 c 0.2,5.8 3.8,10.1 8.6,10.1 3.4,0 6.3,-1.6 8,-4.6 l 0.2,-0.4 3.6,3.5 -0.2,0.3 c -3.6,5 -5.8,5.4 -11.6,5.4 z m -8.5,-18.6 h 14.7 c -0.1,-5.1 -2.7,-8.2 -6.9,-8.2 -4.5,0 -7.3,3 -7.8,8.2 z" id="path68"/></g></g><g id="g76"><path d="m 301.4,91.3 h -5.6 v -5.6 h 5.6 z" id="path74"/></g></g></g></g><g class="st1" id="g88"><path d="m 356.5,97.8 c 0.2,-0.4 0.5,-0.8 0.8,-1.1 0.3,-0.3 0.7,-0.6 1.2,-0.8 0.4,-0.2 0.9,-0.3 1.4,-0.3 0.5,0 1,0.1 1.4,0.3 0.4,0.2 0.8,0.4 1.2,0.8 0.3,0.3 0.6,0.7 0.8,1.1 0.2,0.4 0.3,0.9 0.3,1.4 0,0.5 -0.1,1 -0.3,1.4 -0.2,0.4 -0.5,0.8 -0.8,1.2 -0.3,0.3 -0.7,0.6 -1.2,0.8 -0.4,0.2 -0.9,0.3 -1.4,0.3 -0.5,0 -1,-0.1 -1.4,-0.3 -0.4,-0.2 -0.8,-0.4 -1.2,-0.8 -0.3,-0.3 -0.6,-0.7 -0.8,-1.2 -0.2,-0.4 -0.3,-0.9 -0.3,-1.4 0,-0.5 0.1,-1 0.3,-1.4 z m 0.6,2.7 c 0.2,0.4 0.4,0.7 0.6,1 0.3,0.3 0.6,0.5 1,0.7 0.4,0.2 0.8,0.2 1.2,0.2 0.4,0 0.8,-0.1 1.2,-0.2 0.4,-0.2 0.7,-0.4 0.9,-0.7 0.3,-0.3 0.5,-0.6 0.6,-1 0.2,-0.4 0.2,-0.8 0.2,-1.2 0,-0.4 -0.1,-0.8 -0.2,-1.2 -0.2,-0.4 -0.4,-0.7 -0.6,-1 -0.3,-0.3 -0.6,-0.5 -0.9,-0.6 -0.4,-0.2 -0.8,-0.2 -1.2,-0.2 -0.4,0 -0.8,0.1 -1.2,0.2 -0.4,0.2 -0.7,0.4 -1,0.6 -0.3,0.3 -0.5,0.6 -0.6,1 -0.2,0.4 -0.2,0.8 -0.2,1.2 0,0.4 0.1,0.8 0.2,1.2 z m 3,-3.4 c 0.5,0 0.9,0.1 1.1,0.3 0.2,0.2 0.4,0.5 0.4,0.9 0,0.4 -0.1,0.7 -0.3,0.8 -0.2,0.2 -0.5,0.3 -0.8,0.3 l 1.2,1.9 H 361 l -1.2,-1.8 h -0.7 v 1.8 h -0.7 v -4.2 z m -0.3,1.9 c 0.1,0 0.3,0 0.4,0 0.1,0 0.3,0 0.4,-0.1 0.1,0 0.2,-0.1 0.2,-0.2 0.1,-0.1 0.1,-0.2 0.1,-0.4 0,-0.1 0,-0.3 -0.1,-0.3 -0.1,0 -0.1,-0.1 -0.2,-0.2 -0.1,0 -0.2,-0.1 -0.3,-0.1 -0.1,0 -0.2,0 -0.3,0 h -0.9 V 99 Z" id="path84"/><path d="m 356.5,97.8 c 0.2,-0.4 0.5,-0.8 0.8,-1.1 0.3,-0.3 0.7,-0.6 1.2,-0.8 0.4,-0.2 0.9,-0.3 1.4,-0.3 0.5,0 1,0.1 1.4,0.3 0.4,0.2 0.8,0.4 1.2,0.8 0.3,0.3 0.6,0.7 0.8,1.1 0.2,0.4 0.3,0.9 0.3,1.4 0,0.5 -0.1,1 -0.3,1.4 -0.2,0.4 -0.5,0.8 -0.8,1.2 -0.3,0.3 -0.7,0.6 -1.2,0.8 -0.4,0.2 -0.9,0.3 -1.4,0.3 -0.5,0 -1,-0.1 -1.4,-0.3 -0.4,-0.2 -0.8,-0.4 -1.2,-0.8 -0.3,-0.3 -0.6,-0.7 -0.8,-1.2 -0.2,-0.4 -0.3,-0.9 -0.3,-1.4 0,-0.5 0.1,-1 0.3,-1.4 z m 0.6,2.7 c 0.2,0.4 0.4,0.7 0.6,1 0.3,0.3 0.6,0.5 1,0.7 0.4,0.2 0.8,0.2 1.2,0.2 0.4,0 0.8,-0.1 1.2,-0.2 0.4,-0.2 0.7,-0.4 0.9,-0.7 0.3,-0.3 0.5,-0.6 0.6,-1 0.2,-0.4 0.2,-0.8 0.2,-1.2 0,-0.4 -0.1,-0.8 -0.2,-1.2 -0.2,-0.4 -0.4,-0.7 -0.6,-1 -0.3,-0.3 -0.6,-0.5 -0.9,-0.6 -0.4,-0.2 -0.8,-0.2 -1.2,-0.2 -0.4,0 -0.8,0.1 -1.2,0.2 -0.4,0.2 -0.7,0.4 -1,0.6 -0.3,0.3 -0.5,0.6 -0.6,1 -0.2,0.4 -0.2,0.8 -0.2,1.2 0,0.4 0.1,0.8 0.2,1.2 z m 3,-3.4 c 0.5,0 0.9,0.1 1.1,0.3 0.2,0.2 0.4,0.5 0.4,0.9 0,0.4 -0.1,0.7 -0.3,0.8 -0.2,0.2 -0.5,0.3 -0.8,0.3 l 1.2,1.9 H 361 l -1.2,-1.8 h -0.7 v 1.8 h -0.7 v -4.2 z m -0.3,1.9 c 0.1,0 0.3,0 0.4,0 0.1,0 0.3,0 0.4,-0.1 0.1,0 0.2,-0.1 0.2,-0.2 0.1,-0.1 0.1,-0.2 0.1,-0.4 0,-0.1 0,-0.3 -0.1,-0.3 -0.1,0 -0.1,-0.1 -0.2,-0.2 -0.1,0 -0.2,-0.1 -0.3,-0.1 -0.1,0 -0.2,0 -0.3,0 h -0.9 V 99 Z" id="path86"/></g></g></svg>